<svg xmlns="http://www.w3.org/2000/svg" viewBox="0 0 100 100">
  <!-- Sun -->
  <circle cx="65" cy="35" r="20" fill="#FFD700" />
  
  <!-- Sun rays -->
  <line x1="65" y1="5" x2="65" y2="15" stroke="#FFD700" stroke-width="4" stroke-linecap="round" />
  <line x1="65" y1="55" x2="65" y2="65" stroke="#FFD700" stroke-width="4" stroke-linecap="round" />
  <line x1="35" y1="35" x2="45" y2="35" stroke="#FFD700" stroke-width="4" stroke-linecap="round" />
  <line x1="85" y1="35" x2="95" y2="35" stroke="#FFD700" stroke-width="4" stroke-linecap="round" />
  <line x1="44" y1="14" x2="51" y2="21" stroke="#FFD700" stroke-width="4" stroke-linecap="round" />
  <line x1="79" y1="49" x2="86" y2="56" stroke="#FFD700" stroke-width="4" stroke-linecap="round" />
  <line x1="44" y1="56" x2="51" y2="49" stroke="#FFD700" stroke-width="4" stroke-linecap="round" />
  <line x1="79" y1="21" x2="86" y2="14" stroke="#FFD700" stroke-width="4" stroke-linecap="round" />
  
  <!-- Cloud -->
  <path d="M65,60 C65,48 50,48 50,56 C38,50 30,60 35,70 C25,70 25,85 35,85 L65,85 C75,85 75,70 65,70 C70,65 75,60 65,60 Z" fill="#FFFFFF" stroke="#87CEEB" stroke-width="2" />
</svg>